<svg width="237" height="246" viewBox="0 0 237 246" fill="none" xmlns="http://www.w3.org/2000/svg">
<mask id="mask0_2108_577" style="mask-type:alpha" maskUnits="userSpaceOnUse" x="27" y="0" width="183" height="182">
<rect x="27.5135" width="181.973" height="181.973" fill="#D9D9D9"/>
</mask>
<g mask="url(#mask0_2108_577)">
<path d="M73.8288 112.956C67.5103 112.956 62.1396 110.744 57.7166 106.321C53.2937 101.899 51.0822 96.5278 51.0822 90.2093V67.4626C51.0822 65.3143 51.8088 63.5136 53.2621 62.0603C54.7154 60.607 56.5161 59.8804 58.6644 59.8804H149.84C150.472 55.7102 152.178 51.9823 154.958 48.6967C157.739 45.411 161.151 43.0732 165.194 41.6831L193.059 32.3949C195.081 31.7631 197.04 31.8894 198.935 32.774C200.831 33.6586 202.095 35.1119 202.726 37.1338C203.358 39.1557 203.2 41.1144 202.253 43.01C201.305 44.9056 199.82 46.1693 197.798 46.8011L169.933 56.0893C168.417 56.5948 167.185 57.511 166.237 58.8379C165.289 60.1648 164.815 61.6496 164.815 63.2924V90.2093C164.815 96.5278 162.604 101.899 158.181 106.321C153.758 110.744 148.387 112.956 142.069 112.956H73.8288ZM96.5755 150.867V135.703H51.0822C48.9339 135.703 47.1331 134.976 45.6799 133.523C44.2266 132.069 43.5 130.269 43.5 128.12C43.5 125.972 44.2266 124.171 45.6799 122.718C47.1331 121.265 48.9339 120.538 51.0822 120.538H96.5755C100.746 120.538 104.316 122.023 107.285 124.993C110.255 127.962 111.74 131.532 111.74 135.703V150.867C111.74 153.015 111.013 154.816 109.56 156.269C108.107 157.723 106.306 158.449 104.158 158.449C102.009 158.449 100.209 157.723 98.7554 156.269C97.3021 154.816 96.5755 153.015 96.5755 150.867ZM126.904 150.867V135.703C126.904 131.532 128.389 127.962 131.359 124.993C134.329 122.023 137.899 120.538 142.069 120.538H187.562C189.71 120.538 191.511 121.265 192.964 122.718C194.418 124.171 195.144 125.972 195.144 128.12C195.144 130.269 194.418 132.069 192.964 133.523C191.511 134.976 189.71 135.703 187.562 135.703H142.069V150.867C142.069 153.015 141.342 154.816 139.889 156.269C138.436 157.723 136.635 158.449 134.487 158.449C132.338 158.449 130.537 157.723 129.084 156.269C127.631 154.816 126.904 153.015 126.904 150.867Z" fill="white"/>
</g>
<path d="M1.332 219.409C1.332 216.961 1.896 214.765 3.024 212.821C4.176 210.877 5.724 209.365 7.668 208.285C9.636 207.181 11.784 206.629 14.112 206.629C16.776 206.629 19.14 207.289 21.204 208.609C23.292 209.905 24.804 211.753 25.74 214.153H20.808C20.16 212.833 19.26 211.849 18.108 211.201C16.956 210.553 15.624 210.229 14.112 210.229C12.456 210.229 10.98 210.601 9.684 211.345C8.388 212.089 7.368 213.157 6.624 214.549C5.904 215.941 5.544 217.561 5.544 219.409C5.544 221.257 5.904 222.877 6.624 224.269C7.368 225.661 8.388 226.741 9.684 227.509C10.98 228.253 12.456 228.625 14.112 228.625C15.624 228.625 16.956 228.301 18.108 227.653C19.26 227.005 20.16 226.021 20.808 224.701H25.74C24.804 227.101 23.292 228.949 21.204 230.245C19.14 231.541 16.776 232.189 14.112 232.189C11.76 232.189 9.612 231.649 7.668 230.569C5.724 229.465 4.176 227.941 3.024 225.997C1.896 224.053 1.332 221.857 1.332 219.409ZM39.1478 232.297C37.2758 232.297 35.5838 231.877 34.0718 231.037C32.5598 230.173 31.3718 228.973 30.5078 227.437C29.6438 225.877 29.2118 224.077 29.2118 222.037C29.2118 220.021 29.6558 218.233 30.5438 216.673C31.4318 215.113 32.6438 213.913 34.1798 213.073C35.7158 212.233 37.4318 211.813 39.3278 211.813C41.2238 211.813 42.9398 212.233 44.4758 213.073C46.0118 213.913 47.2238 215.113 48.1118 216.673C48.9998 218.233 49.4438 220.021 49.4438 222.037C49.4438 224.053 48.9878 225.841 48.0758 227.401C47.1638 228.961 45.9158 230.173 44.3318 231.037C42.7718 231.877 41.0438 232.297 39.1478 232.297ZM39.1478 228.733C40.2038 228.733 41.1878 228.481 42.0998 227.977C43.0358 227.473 43.7918 226.717 44.3678 225.709C44.9438 224.701 45.2318 223.477 45.2318 222.037C45.2318 220.597 44.9558 219.385 44.4038 218.401C43.8518 217.393 43.1198 216.637 42.2078 216.133C41.2958 215.629 40.3118 215.377 39.2558 215.377C38.1998 215.377 37.2158 215.629 36.3038 216.133C35.4158 216.637 34.7078 217.393 34.1798 218.401C33.6518 219.385 33.3878 220.597 33.3878 222.037C33.3878 224.173 33.9278 225.829 35.0078 227.005C36.1118 228.157 37.4918 228.733 39.1478 228.733ZM62.1048 232.297C60.2328 232.297 58.5408 231.877 57.0288 231.037C55.5168 230.173 54.3288 228.973 53.4648 227.437C52.6008 225.877 52.1688 224.077 52.1688 222.037C52.1688 220.021 52.6128 218.233 53.5008 216.673C54.3888 215.113 55.6008 213.913 57.1368 213.073C58.6728 212.233 60.3888 211.813 62.2848 211.813C64.1808 211.813 65.8968 212.233 67.4328 213.073C68.9688 213.913 70.1808 215.113 71.0688 216.673C71.9568 218.233 72.4008 220.021 72.4008 222.037C72.4008 224.053 71.9448 225.841 71.0328 227.401C70.1208 228.961 68.8728 230.173 67.2888 231.037C65.7288 231.877 64.0008 232.297 62.1048 232.297ZM62.1048 228.733C63.1608 228.733 64.1448 228.481 65.0568 227.977C65.9928 227.473 66.7488 226.717 67.3248 225.709C67.9008 224.701 68.1888 223.477 68.1888 222.037C68.1888 220.597 67.9128 219.385 67.3608 218.401C66.8088 217.393 66.0768 216.637 65.1648 216.133C64.2528 215.629 63.2688 215.377 62.2128 215.377C61.1568 215.377 60.1728 215.629 59.2608 216.133C58.3728 216.637 57.6648 217.393 57.1368 218.401C56.6088 219.385 56.3448 220.597 56.3448 222.037C56.3448 224.173 56.8848 225.829 57.9648 227.005C59.0688 228.157 60.4488 228.733 62.1048 228.733ZM84.3058 222.073L93.4498 231.973H87.9058L80.5618 223.441V231.973H76.4578V205.333H80.5618V220.813L87.7618 212.137H93.4498L84.3058 222.073ZM103.591 232.297C102.031 232.297 100.627 232.021 99.3794 231.469C98.1554 230.893 97.1834 230.125 96.4634 229.165C95.7434 228.181 95.3594 227.089 95.3114 225.889H99.5594C99.6314 226.729 100.027 227.437 100.747 228.013C101.491 228.565 102.415 228.841 103.519 228.841C104.671 228.841 105.559 228.625 106.183 228.193C106.831 227.737 107.155 227.161 107.155 226.465C107.155 225.721 106.795 225.169 106.075 224.809C105.379 224.449 104.263 224.053 102.727 223.621C101.239 223.213 100.027 222.817 99.0914 222.433C98.1554 222.049 97.3394 221.461 96.6434 220.669C95.9714 219.877 95.6354 218.833 95.6354 217.537C95.6354 216.481 95.9474 215.521 96.5714 214.657C97.1954 213.769 98.0834 213.073 99.2354 212.569C100.411 212.065 101.755 211.813 103.267 211.813C105.523 211.813 107.335 212.389 108.703 213.541C110.095 214.669 110.839 216.217 110.935 218.185H106.831C106.759 217.297 106.399 216.589 105.751 216.061C105.103 215.533 104.227 215.269 103.123 215.269C102.043 215.269 101.215 215.473 100.639 215.881C100.063 216.289 99.7754 216.829 99.7754 217.501C99.7754 218.029 99.9674 218.473 100.351 218.833C100.735 219.193 101.203 219.481 101.755 219.697C102.307 219.889 103.123 220.141 104.203 220.453C105.643 220.837 106.819 221.233 107.731 221.641C108.667 222.025 109.471 222.601 110.143 223.369C110.815 224.137 111.163 225.157 111.187 226.429C111.187 227.557 110.875 228.565 110.251 229.453C109.627 230.341 108.739 231.037 107.587 231.541C106.459 232.045 105.127 232.297 103.591 232.297ZM114.254 219.409C114.254 216.961 114.818 214.765 115.946 212.821C117.098 210.877 118.646 209.365 120.59 208.285C122.558 207.181 124.706 206.629 127.034 206.629C129.698 206.629 132.062 207.289 134.126 208.609C136.214 209.905 137.726 211.753 138.662 214.153H133.73C133.082 212.833 132.182 211.849 131.03 211.201C129.878 210.553 128.546 210.229 127.034 210.229C125.378 210.229 123.902 210.601 122.606 211.345C121.31 212.089 120.29 213.157 119.546 214.549C118.826 215.941 118.466 217.561 118.466 219.409C118.466 221.257 118.826 222.877 119.546 224.269C120.29 225.661 121.31 226.741 122.606 227.509C123.902 228.253 125.378 228.625 127.034 228.625C128.546 228.625 129.878 228.301 131.03 227.653C132.182 227.005 133.082 226.021 133.73 224.701H138.662C137.726 227.101 136.214 228.949 134.126 230.245C132.062 231.541 129.698 232.189 127.034 232.189C124.682 232.189 122.534 231.649 120.59 230.569C118.646 229.465 117.098 227.941 115.946 225.997C114.818 224.053 114.254 221.857 114.254 219.409ZM152.07 232.297C150.198 232.297 148.506 231.877 146.994 231.037C145.482 230.173 144.294 228.973 143.43 227.437C142.566 225.877 142.134 224.077 142.134 222.037C142.134 220.021 142.578 218.233 143.466 216.673C144.354 215.113 145.566 213.913 147.102 213.073C148.638 212.233 150.354 211.813 152.25 211.813C154.146 211.813 155.862 212.233 157.398 213.073C158.934 213.913 160.146 215.113 161.034 216.673C161.922 218.233 162.366 220.021 162.366 222.037C162.366 224.053 161.91 225.841 160.998 227.401C160.086 228.961 158.838 230.173 157.254 231.037C155.694 231.877 153.966 232.297 152.07 232.297ZM152.07 228.733C153.126 228.733 154.11 228.481 155.022 227.977C155.958 227.473 156.714 226.717 157.29 225.709C157.866 224.701 158.154 223.477 158.154 222.037C158.154 220.597 157.878 219.385 157.326 218.401C156.774 217.393 156.042 216.637 155.13 216.133C154.218 215.629 153.234 215.377 152.178 215.377C151.122 215.377 150.138 215.629 149.226 216.133C148.338 216.637 147.63 217.393 147.102 218.401C146.574 219.385 146.31 220.597 146.31 222.037C146.31 224.173 146.85 225.829 147.93 227.005C149.034 228.157 150.414 228.733 152.07 228.733ZM170.527 215.017C171.127 214.009 171.919 213.229 172.903 212.677C173.911 212.101 175.099 211.813 176.467 211.813V216.061H175.423C173.815 216.061 172.591 216.469 171.751 217.285C170.935 218.101 170.527 219.517 170.527 221.533V231.973H166.423V212.137H170.527V215.017ZM190.247 211.813C191.807 211.813 193.199 212.137 194.423 212.785C195.671 213.433 196.643 214.393 197.339 215.665C198.035 216.937 198.383 218.473 198.383 220.273V231.973H194.315V220.885C194.315 219.109 193.871 217.753 192.983 216.817C192.095 215.857 190.883 215.377 189.347 215.377C187.811 215.377 186.587 215.857 185.675 216.817C184.787 217.753 184.343 219.109 184.343 220.885V231.973H180.239V212.137H184.343V214.405C185.015 213.589 185.867 212.953 186.899 212.497C187.955 212.041 189.071 211.813 190.247 211.813ZM221.798 221.569C221.798 222.313 221.75 222.985 221.654 223.585H206.498C206.618 225.169 207.206 226.441 208.262 227.401C209.318 228.361 210.614 228.841 212.15 228.841C214.358 228.841 215.918 227.917 216.83 226.069H221.258C220.658 227.893 219.566 229.393 217.982 230.569C216.422 231.721 214.478 232.297 212.15 232.297C210.254 232.297 208.55 231.877 207.038 231.037C205.55 230.173 204.374 228.973 203.51 227.437C202.67 225.877 202.25 224.077 202.25 222.037C202.25 219.997 202.658 218.209 203.474 216.673C204.314 215.113 205.478 213.913 206.966 213.073C208.478 212.233 210.206 211.813 212.15 211.813C214.022 211.813 215.69 212.221 217.154 213.037C218.618 213.853 219.758 215.005 220.574 216.493C221.39 217.957 221.798 219.649 221.798 221.569ZM217.514 220.273C217.49 218.761 216.95 217.549 215.894 216.637C214.838 215.725 213.53 215.269 211.97 215.269C210.554 215.269 209.342 215.725 208.334 216.637C207.326 217.525 206.726 218.737 206.534 220.273H217.514ZM229.941 215.017C230.541 214.009 231.333 213.229 232.317 212.677C233.325 212.101 234.513 211.813 235.881 211.813V216.061H234.837C233.229 216.061 232.005 216.469 231.165 217.285C230.349 218.101 229.941 219.517 229.941 221.533V231.973H225.837V212.137H229.941V215.017Z" fill="white"/>
</svg>
